<svg data-v-fde0c5aa="" xmlns="http://www.w3.org/2000/svg" viewBox="0 0 300 300" class="iconLeft"><!----><defs data-v-fde0c5aa=""><!----></defs><rect data-v-fde0c5aa="" fill="transparent" x="0" y="0" width="300px" height="300px" class="logo-background-square"></rect><defs data-v-fde0c5aa=""><!----></defs><g data-v-fde0c5aa="" id="f27992ae-755c-405d-8886-8a0605fd838d" fill="#000000" transform="matrix(3.008063050351141,0,0,3.008063050351141,94.82726123292532,119.36287728711825)"><path d="M1.29 14.08L2.94 14.08L2.94 10.02L8.13 10.02L8.13 14.08L9.79 14.08L9.79 4.28L8.13 4.28L8.13 8.54L2.94 8.54L2.94 4.28L1.29 4.28ZM11.65 11.84C11.65 13.16 12.66 14.15 14.27 14.15C15.34 14.15 16.20 13.83 16.73 13.17L16.73 14.08L18.31 14.08L18.30 9.20C18.28 7.56 17.21 6.58 15.29 6.58C13.87 6.58 13.12 6.90 12.08 7.52L12.74 8.64C13.48 8.13 14.22 7.88 14.94 7.88C16.11 7.88 16.72 8.44 16.72 9.38L16.72 9.60L14.46 9.60C12.67 9.62 11.65 10.49 11.65 11.84ZM13.16 11.77C13.16 11.06 13.65 10.78 14.70 10.78L16.72 10.78L16.72 11.47C16.63 12.28 15.75 12.88 14.60 12.88C13.71 12.88 13.16 12.45 13.16 11.77ZM19.77 10.12C19.77 12.26 21.11 13.72 23.13 13.72C24.25 13.72 25.09 13.27 25.59 12.46L25.59 13.40C25.59 14.69 24.67 15.51 23.25 15.51C22.34 15.51 21.62 15.22 20.92 14.70L20.23 15.86C21.14 16.48 22.16 16.84 23.32 16.84C25.66 16.84 27.19 15.50 27.19 13.36L27.19 6.64L25.59 6.64L25.59 7.84C25.07 7.03 24.22 6.57 23.07 6.58C21.10 6.59 19.77 8.02 19.77 10.12ZM21.28 10.16C21.29 8.83 22.18 7.88 23.45 7.88C24.71 7.88 25.59 8.82 25.59 10.16C25.59 11.51 24.71 12.46 23.45 12.46C22.16 12.46 21.29 11.51 21.28 10.16ZM29.19 11.27C29.19 13.05 30.21 14.14 31.92 14.14C33.14 14.13 34.08 13.66 34.58 12.63L34.58 14.08L36.19 14.08L36.19 6.64L34.58 6.64L34.58 10.30C34.58 11.61 33.82 12.60 32.54 12.63C31.46 12.63 30.80 11.94 30.80 10.82L30.80 6.64L29.19 6.64ZM38.57 14.08L40.17 14.08L40.17 10.40C40.17 9.10 40.95 8.12 42.24 8.08C43.33 8.08 43.99 8.76 43.99 9.90L43.99 14.08L45.60 14.08L45.60 10.40C45.60 9.10 46.37 8.12 47.64 8.08C48.73 8.08 49.41 8.76 49.41 9.90L49.41 14.08L51.02 14.08L51.02 9.45C51.02 7.67 49.99 6.58 48.29 6.58C46.93 6.58 45.93 7.13 45.46 8.37C45.11 7.24 44.20 6.58 42.87 6.58C41.64 6.58 40.68 7.03 40.17 8.08L40.17 6.64L38.57 6.64ZM53.03 4.51C53.03 5.07 53.44 5.47 53.97 5.47C54.50 5.47 54.91 5.07 54.91 4.51C54.91 3.93 54.50 3.53 53.97 3.53C53.44 3.53 53.03 3.93 53.03 4.51ZM53.17 14.08L54.77 14.08L54.77 6.64L53.17 6.64Z"></path></g><defs data-v-fde0c5aa=""><linearGradient data-v-fde0c5aa="" gradientTransform="rotate(25)" id="5366910b-b620-4833-b38f-a32d0a6ed4ac" x1="0%" y1="0%" x2="100%" y2="0%"><stop data-v-fde0c5aa="" offset="0%" stop-color="#21690F" stop-opacity="1"></stop><stop data-v-fde0c5aa="" offset="100%" stop-color="#88C848" stop-opacity="1"></stop></linearGradient></defs><g data-v-fde0c5aa="" id="1bfbfcd0-fad7-4fee-9132-db544caed252" stroke="none" fill="url(#5366910b-b620-4833-b38f-a32d0a6ed4ac)" transform="matrix(0.6868069140064057,0,0,0.6868069140064057,28.48308743504375,114.89034679585673)"><g><path d="M60.982 39.621c14.082-2.64 33.706-10.22 8.29-22.21C53.87-4.69 49.458 14.676 48.994 28.806c-2.91-13.835-10.619-32.142-21.95-7.702-21.622 15.284-4.546 19.77 9.484 20.366-13.416 3.24-28.554 10.717-5.433 21.438 15.273 21.606 19.763 4.57 20.365-9.454 2.93 13.847 10.368 30.807 21.849 6.471 22.588-15.744 1.856-20.005-12.326-20.305z"></path><path d="M49.43 43s3 44.773-3 51.302c0 0 3.98 1.698 7-.932C56.452 90.74 50.41 43 50.41 43h-.98z"></path></g></g><!----></svg>